<?xml version="1.0" encoding="iso-8859-1"?>
<!-- Generator: Adobe Illustrator 19.0.0, SVG Export Plug-In . SVG Version: 6.00 Build 0)  -->
<svg version="1.1" id="Layer_1" xmlns="http://www.w3.org/2000/svg" xmlns:xlink="http://www.w3.org/1999/xlink" x="0px" y="0px"
	 viewBox="0 0 512 512" style="enable-background:new 0 0 512 512;" xml:space="preserve">
<g transform="translate(1 1)">
	<g>
		<path d="M33.133,391.533h60.559c3.86,19.681,20.878,34.133,41.841,34.133c22.802,0,40.928-17.102,42.537-39.43l88.139-73.449
			c5.993,16.234,21.447,27.545,39.991,27.545c19.153,0,35.005-12.068,40.546-29.162l79.278,43.242
			c2.65,21.186,20.301,37.119,42.31,37.119c23.893,0,42.667-18.773,42.667-42.667c0-23.893-18.773-42.667-42.667-42.667
			c-19.153,0-35.005,12.068-40.546,29.162l-79.278-43.242C345.86,270.933,328.209,255,306.2,255
			c-22.224,0-40.008,16.244-42.387,37.74l-88.748,73.956c-6.295-15.597-21.442-26.363-39.532-26.363
			c-20.963,0-37.981,14.452-41.841,34.133H33.133v-34.133h8.533c5.12,0,8.533-3.413,8.533-8.533c0-5.12-3.413-8.533-8.533-8.533
			h-8.533v-25.6h8.533c5.12,0,8.533-3.413,8.533-8.533s-3.413-8.533-8.533-8.533h-7.286l69.557-100.471
			c6.616,4.187,14.507,6.604,23.063,6.604c13.899,0,26.057-6.36,33.803-16.378l44.445,22.222c-0.94,3.566-1.448,7.324-1.448,11.223
			c0,23.893,18.773,42.667,42.667,42.667s42.667-18.773,42.667-42.667c0-9.23-2.81-17.688-7.626-24.603l54.191-100.64
			c6.327,3.676,13.726,5.777,21.702,5.777c8.517,0,16.376-2.395,22.973-6.547l55.534,71.4c0.133,0.199,0.28,0.37,0.422,0.549
			c-6.656,7.504-10.662,17.436-10.662,28.464c0,23.893,18.773,42.667,42.667,42.667c23.893,0,42.667-18.773,42.667-42.667
			s-18.773-42.667-42.667-42.667c-6.61,0-12.824,1.442-18.361,4.026c-0.13-0.211-0.266-0.417-0.412-0.613L392.723,65.87
			c4.646-6.839,7.344-15.153,7.344-24.204C400.067,17.773,381.293-1,357.4-1s-42.667,18.773-42.667,42.667
			c0,9.23,2.81,17.688,7.626,24.603l-54.191,100.64c-6.327-3.676-13.726-5.777-21.702-5.777c-14.042,0-26.309,6.489-34.043,16.685
			l-44.309-22.155c1.005-3.678,1.552-7.562,1.552-11.597c0-23.893-18.773-42.667-42.667-42.667s-42.667,18.773-42.667,42.667
			c0,8.879,2.596,17.048,7.08,23.812l-48.55,70.128c-0.389-0.043-0.785-0.073-1.197-0.073h-8.533v-25.6h8.533
			c5.12,0,8.533-3.413,8.533-8.533c0-5.12-3.413-8.533-8.533-8.533h-8.533v-25.6h8.533c5.12,0,8.533-3.413,8.533-8.533
			s-3.413-8.533-8.533-8.533h-8.533V127h8.533c5.12,0,8.533-3.413,8.533-8.533s-3.413-8.533-8.533-8.533h-8.533v-25.6h8.533
			c5.12,0,8.533-3.413,8.533-8.533s-3.413-8.533-8.533-8.533h-8.533v-25.6h8.533c5.12,0,8.533-3.413,8.533-8.533
			c0-5.12-3.413-8.533-8.533-8.533h-8.533V7.533C33.133,2.413,29.72-1,24.6-1s-8.533,3.413-8.533,8.533V24.6H7.533
			C2.413,24.6-1,28.013-1,33.133c0,5.12,3.413,8.533,8.533,8.533h8.533v25.6H7.533C2.413,67.267-1,70.68-1,75.8
			s3.413,8.533,8.533,8.533h8.533v25.6H7.533c-5.12,0-8.533,3.413-8.533,8.533S2.413,127,7.533,127h8.533v25.6H7.533
			c-5.12,0-8.533,3.413-8.533,8.533s3.413,8.533,8.533,8.533h8.533v25.6H7.533C2.413,195.267-1,198.68-1,203.8
			c0,5.12,3.413,8.533,8.533,8.533h8.533v25.6H7.533c-5.12,0-8.533,3.413-8.533,8.533S2.413,255,7.533,255h8.533v22.272
			c-0.404,1.103-0.598,2.229-0.58,3.328H7.533c-5.12,0-8.533,3.413-8.533,8.533s3.413,8.533,8.533,8.533h8.533v25.6H7.533
			C2.413,323.267-1,326.68-1,331.8c0,5.12,3.413,8.533,8.533,8.533h8.533v25.6H7.533c-5.12,0-8.533,3.413-8.533,8.533
			S2.413,383,7.533,383h8.533v25.6H7.533c-5.12,0-8.533,3.413-8.533,8.533s3.413,8.533,8.533,8.533h8.533v25.6H7.533
			C2.413,451.267-1,454.68-1,459.8c0,5.12,3.413,8.533,8.533,8.533h8.533V485.4c0,5.12,3.413,8.533,8.533,8.533h25.6v8.533
			c0,5.12,3.413,8.533,8.533,8.533s8.533-3.413,8.533-8.533v-8.533h25.6v8.533c0,5.12,3.413,8.533,8.533,8.533
			s8.533-3.413,8.533-8.533v-8.533h25.6v8.533c0,5.12,3.413,8.533,8.533,8.533c5.12,0,8.533-3.413,8.533-8.533v-8.533h25.6v8.533
			c0,5.12,3.413,8.533,8.533,8.533s8.533-3.413,8.533-8.533v-8.533h25.6v8.533c0,5.12,3.413,8.533,8.533,8.533
			s8.533-3.413,8.533-8.533v-8.533h25.6v8.533c0,5.12,3.413,8.533,8.533,8.533c5.12,0,8.533-3.413,8.533-8.533v-8.533h25.6v8.533
			c0,5.12,3.413,8.533,8.533,8.533s8.533-3.413,8.533-8.533v-8.533h25.6v8.533c0,5.12,3.413,8.533,8.533,8.533
			s8.533-3.413,8.533-8.533v-8.533h25.6v8.533c0,5.12,3.413,8.533,8.533,8.533c5.12,0,8.533-3.413,8.533-8.533v-8.533h25.6v8.533
			c0,5.12,3.413,8.533,8.533,8.533s8.533-3.413,8.533-8.533v-8.533h25.6v8.533c0,5.12,3.413,8.533,8.533,8.533
			s8.533-3.413,8.533-8.533v-8.533h8.533c5.12,0,8.533-3.413,8.533-8.533s-3.413-8.533-8.533-8.533h-8.533v-8.533
			c0-5.12-3.413-8.533-8.533-8.533s-8.533,3.413-8.533,8.533v8.533h-25.6v-8.533c0-5.12-3.413-8.533-8.533-8.533
			s-8.533,3.413-8.533,8.533v8.533h-25.6v-8.533c0-5.12-3.413-8.533-8.533-8.533c-5.12,0-8.533,3.413-8.533,8.533v8.533h-25.6
			v-8.533c0-5.12-3.413-8.533-8.533-8.533s-8.533,3.413-8.533,8.533v8.533h-25.6v-8.533c0-5.12-3.413-8.533-8.533-8.533
			s-8.533,3.413-8.533,8.533v8.533h-25.6v-8.533c0-5.12-3.413-8.533-8.533-8.533c-5.12,0-8.533,3.413-8.533,8.533v8.533h-25.6
			v-8.533c0-5.12-3.413-8.533-8.533-8.533s-8.533,3.413-8.533,8.533v8.533h-25.6v-8.533c0-5.12-3.413-8.533-8.533-8.533
			s-8.533,3.413-8.533,8.533v8.533h-25.6v-8.533c0-5.12-3.413-8.533-8.533-8.533c-5.12,0-8.533,3.413-8.533,8.533v8.533h-25.6
			v-8.533c0-5.12-3.413-8.533-8.533-8.533s-8.533,3.413-8.533,8.533v8.533h-25.6v-8.533c0-5.12-3.413-8.533-8.533-8.533
			s-8.533,3.413-8.533,8.533v8.533H33.133V391.533z M468.333,323.267c14.507,0,25.6,11.093,25.6,25.6
			c0,14.507-11.093,25.6-25.6,25.6c-13.82,0-24.535-10.071-25.519-23.568c0.353-1.358,0.336-2.739-0.001-4.052
			C443.792,333.344,454.509,323.267,468.333,323.267z M306.2,272.067c13.82,0,24.535,10.072,25.518,23.568
			c-0.353,1.358-0.336,2.739,0.001,4.052c-0.978,13.503-11.695,23.58-25.519,23.58c-14.507,0-25.6-11.093-25.6-25.6
			S291.693,272.067,306.2,272.067z M135.533,357.4c13.584,0,24.174,9.728,25.466,22.876c-0.44,1.568-0.454,3.284,0.044,4.862
			c-1.032,13.443-11.727,23.462-25.511,23.462c-14.507,0-25.6-11.093-25.6-25.6C109.933,368.493,121.027,357.4,135.533,357.4z
			 M493.933,178.2c0,14.507-11.093,25.6-25.6,25.6c-14.507,0-25.6-11.093-25.6-25.6s11.093-25.6,25.6-25.6
			C482.84,152.6,493.933,163.693,493.933,178.2z M357.4,16.067c14.507,0,25.6,11.093,25.6,25.6c0,14.507-11.093,25.6-25.6,25.6
			s-25.6-11.093-25.6-25.6C331.8,27.16,342.893,16.067,357.4,16.067z M246.467,178.2c14.507,0,25.6,11.093,25.6,25.6
			c0,14.507-11.093,25.6-25.6,25.6s-25.6-11.093-25.6-25.6C220.867,189.293,231.96,178.2,246.467,178.2z M127,118.467
			c14.507,0,25.6,11.093,25.6,25.6c0,14.507-11.093,25.6-25.6,25.6s-25.6-11.093-25.6-25.6
			C101.4,129.56,112.493,118.467,127,118.467z"/>
	</g>
</g>
<g>
</g>
<g>
</g>
<g>
</g>
<g>
</g>
<g>
</g>
<g>
</g>
<g>
</g>
<g>
</g>
<g>
</g>
<g>
</g>
<g>
</g>
<g>
</g>
<g>
</g>
<g>
</g>
<g>
</g>
</svg>
